<svg id="visual" viewBox="0 0 900 600" width="900" height="600" xmlns="http://www.w3.org/2000/svg" xmlns:xlink="http://www.w3.org/1999/xlink" version="1.1"><rect x="0" y="0" width="900" height="600" fill="#a4e6d1"></rect><path d="M0 391L21.5 399C43 407 86 423 128.8 432C171.7 441 214.3 443 257.2 443.8C300 444.7 343 444.3 385.8 428.5C428.7 412.7 471.3 381.3 514.2 377.3C557 373.3 600 396.7 642.8 403.2C685.7 409.7 728.3 399.3 771.2 394.5C814 389.7 857 390.3 878.5 390.7L900 391L900 601L878.5 601C857 601 814 601 771.2 601C728.3 601 685.7 601 642.8 601C600 601 557 601 514.2 601C471.3 601 428.7 601 385.8 601C343 601 300 601 257.2 601C214.3 601 171.7 601 128.8 601C86 601 43 601 21.5 601L0 601Z" fill="#815b5b"></path><path d="M0 470L21.5 470.7C43 471.3 86 472.7 128.8 470.3C171.7 468 214.3 462 257.2 460.7C300 459.3 343 462.7 385.8 465.7C428.7 468.7 471.3 471.3 514.2 462.8C557 454.3 600 434.7 642.8 433C685.7 431.3 728.3 447.7 771.2 451.2C814 454.7 857 445.3 878.5 440.7L900 436L900 601L878.5 601C857 601 814 601 771.2 601C728.3 601 685.7 601 642.8 601C600 601 557 601 514.2 601C471.3 601 428.7 601 385.8 601C343 601 300 601 257.2 601C214.3 601 171.7 601 128.8 601C86 601 43 601 21.5 601L0 601Z" fill="#684547"></path><path d="M0 456L21.5 464.5C43 473 86 490 128.8 497.8C171.7 505.7 214.3 504.3 257.2 502.2C300 500 343 497 385.8 486.7C428.7 476.3 471.3 458.7 514.2 454C557 449.3 600 457.7 642.8 468C685.7 478.3 728.3 490.7 771.2 486.8C814 483 857 463 878.5 453L900 443L900 601L878.5 601C857 601 814 601 771.2 601C728.3 601 685.7 601 642.8 601C600 601 557 601 514.2 601C471.3 601 428.7 601 385.8 601C343 601 300 601 257.2 601C214.3 601 171.7 601 128.8 601C86 601 43 601 21.5 601L0 601Z" fill="#4f3033"></path><path d="M0 520L21.5 522.5C43 525 86 530 128.8 525.3C171.7 520.7 214.3 506.3 257.2 505.3C300 504.3 343 516.7 385.8 520.3C428.7 524 471.3 519 514.2 518.2C557 517.3 600 520.7 642.8 517.3C685.7 514 728.3 504 771.2 504.7C814 505.3 857 516.7 878.5 522.3L900 528L900 601L878.5 601C857 601 814 601 771.2 601C728.3 601 685.7 601 642.8 601C600 601 557 601 514.2 601C471.3 601 428.7 601 385.8 601C343 601 300 601 257.2 601C214.3 601 171.7 601 128.8 601C86 601 43 601 21.5 601L0 601Z" fill="#371c21"></path><path d="M0 568L21.5 565.3C43 562.7 86 557.3 128.8 556.2C171.7 555 214.3 558 257.2 561.2C300 564.3 343 567.7 385.8 563.3C428.7 559 471.3 547 514.2 544.7C557 542.3 600 549.7 642.8 553.2C685.7 556.7 728.3 556.3 771.2 558C814 559.7 857 563.3 878.5 565.2L900 567L900 601L878.5 601C857 601 814 601 771.2 601C728.3 601 685.7 601 642.8 601C600 601 557 601 514.2 601C471.3 601 428.7 601 385.8 601C343 601 300 601 257.2 601C214.3 601 171.7 601 128.8 601C86 601 43 601 21.5 601L0 601Z" fill="#22060e"></path></svg>