<svg id="visual" viewBox="0 0 900 600" width="900" height="600" xmlns="http://www.w3.org/2000/svg" xmlns:xlink="http://www.w3.org/1999/xlink" version="1.1"><g stroke-width="1" stroke-linejoin="bevel"><path d="M484 321L538 378L617 269Z" fill="#2e1623" stroke="#2e1623"></path><path d="M624 420L683 306L617 269Z" fill="#937872" stroke="#937872"></path><path d="M538 378L624 420L617 269Z" fill="#937872" stroke="#937872"></path><path d="M671 216L590 174L617 269Z" fill="#2e1623" stroke="#2e1623"></path><path d="M617 269L491 180L484 321Z" fill="#1c0016" stroke="#1c0016"></path><path d="M590 174L491 180L617 269Z" fill="#a78e85" stroke="#a78e85"></path><path d="M683 306L671 216L617 269Z" fill="#cfbeae" stroke="#cfbeae"></path><path d="M377 438L523 468L538 378Z" fill="#563a40" stroke="#563a40"></path><path d="M538 378L567 476L624 420Z" fill="#a78e85" stroke="#a78e85"></path><path d="M523 468L567 476L538 378Z" fill="#bba699" stroke="#bba699"></path><path d="M360 224L367 290L484 321Z" fill="#1c0016" stroke="#1c0016"></path><path d="M484 321L377 438L538 378Z" fill="#2e1623" stroke="#2e1623"></path><path d="M671 216L591 100L590 174Z" fill="#7f6260" stroke="#7f6260"></path><path d="M590 174L591 100L491 180Z" fill="#563a40" stroke="#563a40"></path><path d="M491 180L360 224L484 321Z" fill="#422731" stroke="#422731"></path><path d="M396 129L360 224L491 180Z" fill="#2e1623" stroke="#2e1623"></path><path d="M732 499L729 431L624 420Z" fill="#a78e85" stroke="#a78e85"></path><path d="M624 420L729 431L683 306Z" fill="#bba699" stroke="#bba699"></path><path d="M683 306L785 296L671 216Z" fill="#7f6260" stroke="#7f6260"></path><path d="M277 336L377 438L367 290Z" fill="#6b4d4f" stroke="#6b4d4f"></path><path d="M367 290L377 438L484 321Z" fill="#cfbeae" stroke="#cfbeae"></path><path d="M591 100L460 105L491 180Z" fill="#1c0016" stroke="#1c0016"></path><path d="M801 393L785 296L683 306Z" fill="#563a40" stroke="#563a40"></path><path d="M671 216L727 74L591 100Z" fill="#563a40" stroke="#563a40"></path><path d="M460 105L396 129L491 180Z" fill="#7f6260" stroke="#7f6260"></path><path d="M729 431L801 393L683 306Z" fill="#6b4d4f" stroke="#6b4d4f"></path><path d="M567 476L732 499L624 420Z" fill="#a78e85" stroke="#a78e85"></path><path d="M729 431L801 481L801 393Z" fill="#937872" stroke="#937872"></path><path d="M900 210L788 165L785 296Z" fill="#cfbeae" stroke="#cfbeae"></path><path d="M785 296L788 165L671 216Z" fill="#1c0016" stroke="#1c0016"></path><path d="M360 224L277 336L367 290Z" fill="#1c0016" stroke="#1c0016"></path><path d="M197 217L277 336L360 224Z" fill="#e3d6c5" stroke="#e3d6c5"></path><path d="M378 0L331 126L396 129Z" fill="#422731" stroke="#422731"></path><path d="M396 129L331 126L360 224Z" fill="#2e1623" stroke="#2e1623"></path><path d="M788 165L727 74L671 216Z" fill="#6b4d4f" stroke="#6b4d4f"></path><path d="M591 100L473 0L460 105Z" fill="#6b4d4f" stroke="#6b4d4f"></path><path d="M277 336L283 407L377 438Z" fill="#1c0016" stroke="#1c0016"></path><path d="M377 438L365 532L523 468Z" fill="#563a40" stroke="#563a40"></path><path d="M491 600L602 600L567 476Z" fill="#e3d6c5" stroke="#e3d6c5"></path><path d="M567 476L602 600L732 499Z" fill="#e3d6c5" stroke="#e3d6c5"></path><path d="M274 502L365 532L377 438Z" fill="#cfbeae" stroke="#cfbeae"></path><path d="M491 600L567 476L523 468Z" fill="#2e1623" stroke="#2e1623"></path><path d="M365 532L491 600L523 468Z" fill="#937872" stroke="#937872"></path><path d="M732 499L801 481L729 431Z" fill="#563a40" stroke="#563a40"></path><path d="M786 600L801 481L732 499Z" fill="#7f6260" stroke="#7f6260"></path><path d="M727 74L603 0L591 100Z" fill="#e3d6c5" stroke="#e3d6c5"></path><path d="M460 105L378 0L396 129Z" fill="#e3d6c5" stroke="#e3d6c5"></path><path d="M603 0L473 0L591 100Z" fill="#e3d6c5" stroke="#e3d6c5"></path><path d="M204 86L266 160L331 126Z" fill="#937872" stroke="#937872"></path><path d="M331 126L266 160L360 224Z" fill="#e3d6c5" stroke="#e3d6c5"></path><path d="M788 165L790 72L727 74Z" fill="#e3d6c5" stroke="#e3d6c5"></path><path d="M727 74L725 0L603 0Z" fill="#563a40" stroke="#563a40"></path><path d="M900 61L790 72L788 165Z" fill="#bba699" stroke="#bba699"></path><path d="M602 600L722 600L732 499Z" fill="#422731" stroke="#422731"></path><path d="M290 600L385 600L365 532Z" fill="#e3d6c5" stroke="#e3d6c5"></path><path d="M365 532L385 600L491 600Z" fill="#e3d6c5" stroke="#e3d6c5"></path><path d="M194 501L274 502L283 407Z" fill="#cfbeae" stroke="#cfbeae"></path><path d="M283 407L274 502L377 438Z" fill="#6b4d4f" stroke="#6b4d4f"></path><path d="M175 418L283 407L277 336Z" fill="#cfbeae" stroke="#cfbeae"></path><path d="M900 383L785 296L801 393Z" fill="#422731" stroke="#422731"></path><path d="M900 383L900 263L785 296Z" fill="#7f6260" stroke="#7f6260"></path><path d="M773 0L725 0L727 74Z" fill="#e3d6c5" stroke="#e3d6c5"></path><path d="M801 481L900 383L801 393Z" fill="#bba699" stroke="#bba699"></path><path d="M900 530L900 383L801 481Z" fill="#2e1623" stroke="#2e1623"></path><path d="M473 0L378 0L460 105Z" fill="#cfbeae" stroke="#cfbeae"></path><path d="M900 263L900 210L785 296Z" fill="#cfbeae" stroke="#cfbeae"></path><path d="M204 86L197 217L266 160Z" fill="#6b4d4f" stroke="#6b4d4f"></path><path d="M266 160L197 217L360 224Z" fill="#6b4d4f" stroke="#6b4d4f"></path><path d="M722 600L786 600L732 499Z" fill="#6b4d4f" stroke="#6b4d4f"></path><path d="M900 0L773 0L790 72Z" fill="#1c0016" stroke="#1c0016"></path><path d="M790 72L773 0L727 74Z" fill="#a78e85" stroke="#a78e85"></path><path d="M197 217L177 286L277 336Z" fill="#6b4d4f" stroke="#6b4d4f"></path><path d="M274 502L290 600L365 532Z" fill="#1c0016" stroke="#1c0016"></path><path d="M193 600L290 600L274 502Z" fill="#422731" stroke="#422731"></path><path d="M177 286L175 418L277 336Z" fill="#2e1623" stroke="#2e1623"></path><path d="M175 418L194 501L283 407Z" fill="#563a40" stroke="#563a40"></path><path d="M786 600L900 530L801 481Z" fill="#422731" stroke="#422731"></path><path d="M378 0L282 0L331 126Z" fill="#a78e85" stroke="#a78e85"></path><path d="M86 232L115 315L177 286Z" fill="#cfbeae" stroke="#cfbeae"></path><path d="M282 0L204 86L331 126Z" fill="#422731" stroke="#422731"></path><path d="M900 210L900 61L788 165Z" fill="#e3d6c5" stroke="#e3d6c5"></path><path d="M177 286L134 396L175 418Z" fill="#2e1623" stroke="#2e1623"></path><path d="M175 418L85 511L194 501Z" fill="#e3d6c5" stroke="#e3d6c5"></path><path d="M115 315L134 396L177 286Z" fill="#2e1623" stroke="#2e1623"></path><path d="M86 232L177 286L197 217Z" fill="#422731" stroke="#422731"></path><path d="M786 600L900 600L900 530Z" fill="#cfbeae" stroke="#cfbeae"></path><path d="M173 0L134 123L204 86Z" fill="#563a40" stroke="#563a40"></path><path d="M204 86L134 123L197 217Z" fill="#7f6260" stroke="#7f6260"></path><path d="M900 61L900 0L790 72Z" fill="#563a40" stroke="#563a40"></path><path d="M194 501L193 600L274 502Z" fill="#1c0016" stroke="#1c0016"></path><path d="M85 511L193 600L194 501Z" fill="#2e1623" stroke="#2e1623"></path><path d="M134 123L86 232L197 217Z" fill="#563a40" stroke="#563a40"></path><path d="M0 465L85 511L134 396Z" fill="#e3d6c5" stroke="#e3d6c5"></path><path d="M134 396L85 511L175 418Z" fill="#937872" stroke="#937872"></path><path d="M282 0L173 0L204 86Z" fill="#a78e85" stroke="#a78e85"></path><path d="M0 177L0 260L86 232Z" fill="#bba699" stroke="#bba699"></path><path d="M0 400L134 396L115 315Z" fill="#6b4d4f" stroke="#6b4d4f"></path><path d="M173 0L103 0L134 123Z" fill="#1c0016" stroke="#1c0016"></path><path d="M0 177L86 232L134 123Z" fill="#e3d6c5" stroke="#e3d6c5"></path><path d="M86 232L0 260L115 315Z" fill="#2e1623" stroke="#2e1623"></path><path d="M0 600L75 600L85 511Z" fill="#cfbeae" stroke="#cfbeae"></path><path d="M85 511L75 600L193 600Z" fill="#bba699" stroke="#bba699"></path><path d="M0 260L0 400L115 315Z" fill="#563a40" stroke="#563a40"></path><path d="M0 83L0 177L134 123Z" fill="#563a40" stroke="#563a40"></path><path d="M0 400L0 465L134 396Z" fill="#2e1623" stroke="#2e1623"></path><path d="M103 0L0 83L134 123Z" fill="#e3d6c5" stroke="#e3d6c5"></path><path d="M0 465L0 600L85 511Z" fill="#bba699" stroke="#bba699"></path><path d="M103 0L0 0L0 83Z" fill="#2e1623" stroke="#2e1623"></path></g></svg>